<svg xmlns="http://www.w3.org/2000/svg" viewBox="0 0 64 64" role="img" aria-label="LASE CPU Icon">
  <rect x="4" y="4" width="56" height="56" rx="12" fill="#2563eb"/>
  <rect x="20" y="20" width="24" height="24" rx="4" fill="#ffffff"/>
  <rect x="26" y="26" width="12" height="12" rx="2" fill="#2563eb"/>
  <rect x="12" y="24" width="6" height="4" rx="1" fill="#ffffff"/>
  <rect x="12" y="30" width="6" height="4" rx="1" fill="#ffffff"/>
  <rect x="12" y="36" width="6" height="4" rx="1" fill="#ffffff"/>
  <rect x="46" y="24" width="6" height="4" rx="1" fill="#ffffff"/>
  <rect x="46" y="30" width="6" height="4" rx="1" fill="#ffffff"/>
  <rect x="46" y="36" width="6" height="4" rx="1" fill="#ffffff"/>
  <rect x="24" y="12" width="4" height="6" rx="1" fill="#ffffff"/>
  <rect x="30" y="12" width="4" height="6" rx="1" fill="#ffffff"/>
  <rect x="36" y="12" width="4" height="6" rx="1" fill="#ffffff"/>
  <rect x="24" y="46" width="4" height="6" rx="1" fill="#ffffff"/>
  <rect x="30" y="46" width="4" height="6" rx="1" fill="#ffffff"/>
  <rect x="36" y="46" width="4" height="6" rx="1" fill="#ffffff"/>
</svg>
